# xmcd
#
# Track frame offsets: 
#        150
#        22204
#        41666
#        64433
#        82343
#        102456
#        120163
#        139265
#        161202
#        182034
#
# Disc length: 2664 seconds
#
# Revision: 1
# Processed by: cddbd v1.5.2PL0 Copyright (c) Steve Scherf et al.
# Submitted via: ExactAudioCopy v1.3
#
DISCID=950a660a
DTITLE=Iron Horse - Black and Bluegrass:  A Tribute to Ozzy Osbourne
DYEAR=2004
DGENRE=Bluegrass
TTITLE0=Crazy Train
TTITLE1=I Don't Know
TTITLE2=Sabbath Bloody Sabbath
TTITLE3=Paranoid
TTITLE4=Mama, I'm Coming Home
TTITLE5=Supernaut
TTITLE6=Suicide Solution
TTITLE7=Shot In The Dark
TTITLE8=Bark At The Moon
TTITLE9=Flying High Again
EXTD=YEAR: 2004
EXTT0=
EXTT1=
EXTT2=
EXTT3=
EXTT4=
EXTT5=
EXTT6=
EXTT7=
EXTT8=
EXTT9=
PLAYORDER=
